<svg data-v-423bf9ae="" xmlns="http://www.w3.org/2000/svg" viewBox="0 0 211.3832300366332 200" class="iconAboveSlogan"><!----><!----><!----><g data-v-423bf9ae="" id="8b32aadd-f2f3-4f31-805b-9559fdf56ae4" fill="black" transform="matrix(4.535147549208299,0,0,4.535147549208299,-1.904762973276192,113.99773395020607)"><path d="M5.07 11.94L4.17 11.94L4.17 7.25L4.77 7.25C5.96 7.25 6.68 7.92 6.68 9.30L6.90 9.30L6.90 5.03L6.68 5.03C6.68 6.51 5.94 7.03 4.83 7.03L4.17 7.03L4.17 2.72L5.22 2.72C7.46 2.72 8.13 3.85 8.13 5.82L8.36 5.82L8.36 2.49L0.42 2.49L0.42 2.72L1.32 2.72L1.32 11.94L0.42 11.94L0.42 12.17L5.07 12.17ZM9.97 11.94L9.10 11.94L9.10 12.17L13.51 12.17L13.51 11.94L12.61 11.94L12.61 2.23C11.68 2.42 10.78 2.49 9.81 2.49L8.97 2.49L8.97 2.72L9.97 2.72ZM19.05 5.46C18.38 5.46 17.85 5.94 17.85 6.65C17.85 7.24 18.30 7.73 18.90 7.73C19.45 7.73 19.89 7.35 19.89 6.75C19.89 6.44 19.71 6.17 19.42 6.03C19.32 5.99 19.29 5.96 19.29 5.89C19.29 5.82 19.35 5.77 19.42 5.77C19.56 5.77 19.80 5.92 19.88 6.01C20.27 6.34 20.44 6.89 20.44 7.50C20.44 8.19 20.33 8.81 20.12 9.28C19.73 10.15 19.29 10.65 18.72 10.65C18.16 10.65 17.16 9.59 17.16 6.65C17.16 6.10 17.19 5.46 17.19 5.46C16.25 5.66 15.25 5.73 14.28 5.73L13.44 5.73L13.44 5.95L14.45 5.95L14.45 6.17C14.45 9.21 14.91 11.13 17.36 11.93C16.74 12.42 16.17 12.98 16.17 13.90C16.17 14.87 16.86 15.46 17.67 15.46C18.34 15.46 18.89 15.01 18.89 14.24C18.89 13.58 18.37 13.15 17.78 13.15C17.19 13.15 16.83 13.62 16.83 14.08C16.83 14.36 16.98 14.69 17.26 14.87C17.33 14.91 17.37 14.94 17.37 15.01C17.37 15.06 17.33 15.13 17.25 15.13C17.21 15.13 17.14 15.11 17.09 15.08C16.77 14.90 16.42 14.59 16.42 13.87C16.42 12.47 18.27 11.73 19.26 10.88C20.24 10.04 20.69 8.86 20.69 7.55C20.69 6.43 20.19 5.46 19.05 5.46ZM27.02 6.79L27.17 6.79C28.49 6.79 30.23 6.19 30.23 4.61C30.23 2.98 28.87 2.49 26.14 2.49L21.32 2.49L21.32 2.72L22.36 2.72L22.36 11.94L21.32 11.94L21.32 12.17L26.08 12.17C28.53 12.17 30.62 11.55 30.62 9.34C30.62 7.57 28.71 6.90 27.02 6.87ZM27.68 9.45C27.68 10.81 27.31 11.94 25.62 11.94L25.20 11.94L25.20 7.03L25.54 7.03C26.61 7.03 27.68 7.39 27.68 9.45ZM27.27 4.69C27.27 5.81 26.68 6.79 25.51 6.79L25.20 6.79L25.20 2.72L25.44 2.72C26.85 2.72 27.27 3.81 27.27 4.69ZM38.98 11.94L38.98 5.46C38.04 5.66 37.20 5.73 36.23 5.73L35.39 5.73L35.39 5.96L36.39 5.96L36.39 8.48C36.39 9.91 36.11 11.63 35.39 11.63C34.76 11.63 34.71 10.61 34.71 8.97L34.71 5.46C33.77 5.66 32.93 5.73 31.96 5.73L31.12 5.73L31.12 5.95L32.12 5.95L32.12 9.56C32.12 11.26 32.61 12.45 34.30 12.45C35.28 12.45 35.90 11.98 36.26 11.07L36.33 11.07L36.33 12.17L39.84 12.17L39.84 11.94ZM45.39 5.46C44.72 5.46 44.18 5.94 44.18 6.65C44.18 7.24 44.63 7.73 45.23 7.73C45.78 7.73 46.23 7.35 46.23 6.75C46.23 6.44 46.05 6.17 45.75 6.03C45.65 5.99 45.63 5.96 45.63 5.89C45.63 5.82 45.68 5.77 45.75 5.77C45.89 5.77 46.13 5.92 46.21 6.01C46.61 6.34 46.77 6.89 46.77 7.50C46.77 8.19 46.66 8.81 46.45 9.28C46.06 10.15 45.63 10.65 45.05 10.65C44.49 10.65 43.50 9.59 43.50 6.65C43.50 6.10 43.53 5.46 43.53 5.46C42.59 5.66 41.58 5.73 40.61 5.73L39.77 5.73L39.77 5.95L40.78 5.95L40.78 6.17C40.78 9.21 41.24 11.13 43.69 11.93C43.08 12.42 42.50 12.98 42.50 13.90C42.50 14.87 43.19 15.46 44.00 15.46C44.67 15.46 45.22 15.01 45.22 14.24C45.22 13.58 44.70 13.15 44.11 13.15C43.53 13.15 43.16 13.62 43.16 14.08C43.16 14.36 43.32 14.69 43.60 14.87C43.67 14.91 43.71 14.94 43.71 15.01C43.71 15.06 43.67 15.13 43.58 15.13C43.54 15.13 43.47 15.11 43.43 15.08C43.11 14.90 42.76 14.59 42.76 13.87C42.76 12.47 44.60 11.73 45.60 10.88C46.58 10.04 47.03 8.86 47.03 7.55C47.03 6.43 46.52 5.46 45.39 5.46Z"></path></g><!----><g data-v-423bf9ae="" id="ad3c6eaa-b2c7-42d3-a629-ba5e8dd8cabb" transform="matrix(1.1111111111111112,0,0,1.1111111111111112,50.28974299960666,0.44444444444444287)" stroke="none" fill="black"><path d="M37 50c-1.048 7.799 3.27 10.057 3.27 19.602C40.27 95 .184 99.935 49.912 99.998V100l.245-.001.245.001v-.002c18.305-.023 24.432-1.323 24.877-3.995C51 81 45 67.179 37 50z"></path><path d="M38.275 41.361C34 51 57 86 75 94c-4.397-4.956-14.957-15.013-14.957-24.398 0-12.317 10.133-12.792 1.993-28.24-8.139-15.448-1.162-19.435 1.993-22.757C67.187 15.282 62.701 9.801 60.376 0l-2.295 2.987c.592 3.58-.948 7.395-2.531 7.395-4.484 0-5.481 3.571-5.481 3.571s-1.495-3.571-5.316-3.571c-1.618 0-3.335-3.991-2.709-7.642L39.938 0c-2.325 9.801-6.811 15.282-3.655 18.604 3.155 3.323 9.072 6.794 1.992 22.757z"></path></g><!----><g data-v-423bf9ae="" id="1cf0d939-be18-449a-aabd-f8e06b53edf1" fill="black" transform="matrix(0.29209488480172785,0,0,0.29209488480172785,27.09939938266342,226.83646446489524)"><path d="M0.52 12.39C0.52 12.63 0.53 12.68 0.73 12.68C0.91 12.68 1.29 12.64 1.90 12.64C2.53 12.64 3.09 12.68 3.42 12.68C3.58 12.68 3.58 12.61 3.58 12.40C3.58 12.24 3.58 12.18 3.42 12.18L2.21 12.18C2.17 12.18 2.16 11.54 2.16 10.79C2.16 9.46 2.17 7.48 2.17 5.99C2.17 5.25 2.17 4.84 2.18 4.28C2.18 4.02 2.25 4.14 2.38 4.28L9.27 12.66C9.35 12.75 9.44 12.89 9.55 12.89C9.66 12.89 9.73 12.77 9.73 12.54C9.73 12.39 9.90 6.65 9.91 4.48C9.91 4.06 9.94 3.70 9.97 3.70L10.60 3.70C10.82 3.70 10.88 3.68 10.88 3.49C10.88 3.25 10.88 3.19 10.68 3.19C10.49 3.19 10.05 3.23 9.49 3.23C8.88 3.23 8.08 3.19 7.98 3.19C7.81 3.19 7.81 3.26 7.81 3.47C7.81 3.64 7.81 3.70 7.98 3.70L9.28 3.70C9.30 3.70 9.30 4.33 9.30 4.44C9.30 5.85 9.32 8.33 9.32 9.70L9.32 10.29C9.32 10.57 9.31 10.65 9.09 10.37L3.40 3.39C3.29 3.25 3.26 3.19 3.09 3.19C3.01 3.19 2.63 3.23 2.32 3.23C2.03 3.23 0.95 3.19 0.76 3.19C0.59 3.19 0.56 3.26 0.56 3.47C0.56 3.64 0.59 3.70 0.76 3.70L1.67 3.70C1.67 4.17 1.62 8.53 1.55 10.79C1.53 11.69 1.54 12.18 1.43 12.18L0.78 12.18C0.56 12.18 0.52 12.19 0.52 12.39ZM18.98 8.15C18.98 11.17 21.32 12.80 23.58 12.80C26.36 12.80 28.34 10.89 28.34 8.06C28.34 5.33 26.59 3.11 23.79 3.11C21.18 3.11 18.98 5.10 18.98 8.15ZM20.38 7.77C20.38 5.64 21.67 3.58 23.65 3.58C25.89 3.58 26.96 5.81 26.96 7.94C26.96 10.08 25.86 12.32 23.59 12.32C21.60 12.32 20.38 10.28 20.38 7.77ZM35.74 3.51C35.74 3.75 35.85 3.77 36.02 3.77L36.53 3.77C36.61 3.77 38.75 10.99 38.78 11.07C39.13 12.14 39.24 12.99 39.55 12.99C39.77 12.99 39.87 12.67 40.15 12.26C40.31 12.05 40.40 12.01 40.54 11.66L42.53 6.45C42.60 6.29 42.63 6.20 42.66 6.20C42.69 6.20 42.71 6.29 42.76 6.45C43.36 8.51 44.03 11.03 44.04 11.07C44.39 12.14 44.51 12.99 44.81 12.99C45.04 12.99 45.14 12.67 45.42 12.26C45.57 12.05 45.67 12.01 45.81 11.66L48.90 4.06C49 3.81 49 3.77 49.36 3.77C49.60 3.77 49.66 3.71 49.66 3.53C49.66 3.32 49.62 3.26 49.42 3.26C49.28 3.26 48.97 3.30 48.47 3.30C47.73 3.30 47.22 3.26 47.03 3.26C46.84 3.26 46.75 3.28 46.75 3.51C46.75 3.75 46.86 3.77 47.03 3.77L47.94 3.77C48.01 3.77 48.02 3.81 48.02 3.95C48.02 4.63 46.42 8.72 45.71 10.63C45.57 10.99 45.50 11.17 45.46 11.17C45.40 11.17 45.35 10.99 45.22 10.60C45.14 10.30 44.21 7.18 43.68 5.22C43.64 5.05 43.43 4.17 43.43 3.85C43.43 3.81 43.43 3.79 43.44 3.77L44.32 3.77C44.51 3.77 44.60 3.75 44.60 3.56C44.60 3.32 44.56 3.26 44.37 3.26C44.04 3.26 43.11 3.30 42.69 3.30C42.27 3.30 41.36 3.26 41.13 3.26C40.95 3.26 40.85 3.28 40.85 3.51C40.85 3.75 40.96 3.77 41.13 3.77L41.93 3.77C41.97 3.77 42.15 4.27 42.31 4.83C42.36 5.05 42.41 5.15 42.41 5.25C42.41 5.31 42.41 5.38 42.36 5.49L40.36 10.60C40.26 10.82 40.24 10.95 40.19 10.95C40.15 10.95 40.12 10.84 40.04 10.60C39.96 10.32 38.95 7.27 38.35 5.22C38.30 5.08 37.98 3.96 37.97 3.85C37.98 3.77 38.02 3.77 38.07 3.77L38.77 3.77C38.99 3.77 39.06 3.75 39.06 3.56C39.06 3.32 39.02 3.26 38.82 3.26C38.50 3.26 37.79 3.30 37.37 3.30C36.95 3.30 36.25 3.26 36.02 3.26C35.84 3.26 35.74 3.28 35.74 3.51ZM66.93 12.39C66.93 12.63 66.98 12.68 67.17 12.68C67.49 12.68 68.25 12.64 68.96 12.64C69.62 12.64 70.42 12.68 70.64 12.68C70.81 12.68 70.84 12.61 70.84 12.40C70.84 12.24 70.81 12.18 70.64 12.18L69.68 12.18C69.58 12.18 69.55 9.55 69.55 7.76L69.55 5.87C69.55 5.14 69.58 3.70 69.68 3.70L70.59 3.70C70.81 3.70 70.84 3.68 70.84 3.49C70.84 3.25 70.81 3.19 70.64 3.19C70.32 3.19 69.65 3.23 68.99 3.23C68.18 3.23 67.47 3.19 67.24 3.19C67.06 3.19 66.99 3.21 66.99 3.44C66.99 3.68 67.07 3.70 67.24 3.70L68.17 3.70C68.21 3.70 68.28 4.79 68.28 5.71L68.28 7.08C68.28 8.92 68.26 12.18 68.15 12.18L67.23 12.18C67.00 12.18 66.93 12.19 66.93 12.39ZM78.95 5.77C78.95 9.07 83.93 8.20 83.93 10.65C83.93 11.59 83.09 12.31 82.11 12.31C81.28 12.31 79.69 11.83 79.66 11.47L79.58 10.15C79.56 9.97 79.49 9.91 79.31 9.91L79.24 9.91C79.03 9.91 79.03 10.00 79.03 10.12C79.03 10.32 79.14 11.66 79.17 12.17C79.18 12.38 80.44 12.85 81.98 12.85C83.55 12.85 85.16 11.87 85.16 10.11C85.16 6.79 80.19 7.87 80.19 5.32C80.19 4.31 80.98 3.56 82.01 3.56C83.03 3.56 84.13 4.58 84.13 4.89C84.13 5.01 84.08 5.73 84.08 5.78C84.08 5.92 84.13 5.99 84.39 5.99C84.63 5.99 84.64 5.94 84.64 5.75C84.64 5.04 84.73 3.68 84.73 3.53C84.73 3.30 84.69 3.29 84.42 3.29C84.20 3.29 84.18 3.32 84.17 3.53C84.17 3.61 84.15 3.78 84.11 3.78C84.06 3.78 83.97 3.74 83.90 3.68C83.10 3.14 82.49 3.08 81.98 3.08C80.46 3.08 78.95 4.17 78.95 5.77ZM102.66 5.01C102.66 5.17 102.84 5.17 102.97 5.17C103.12 5.17 103.17 5.15 103.18 4.97L103.29 3.89C103.31 3.81 103.85 3.75 104.61 3.75L106.60 3.75C106.65 3.75 106.68 4.35 106.68 4.97C106.68 6.43 106.62 12.18 106.50 12.18L105.63 12.18C105.41 12.18 105.36 12.19 105.36 12.39C105.36 12.63 105.38 12.68 105.57 12.68C105.90 12.68 106.88 12.64 107.30 12.64C107.72 12.64 108.65 12.68 108.98 12.68C109.14 12.68 109.17 12.61 109.17 12.40C109.17 12.24 109.14 12.18 108.98 12.18L107.98 12.18C107.95 12.18 107.95 11.76 107.95 11.31C107.95 9.56 108.04 5.96 108.04 5.92C108.05 5.18 108.05 3.75 108.15 3.75L109.76 3.75C110.47 3.75 111.30 3.78 111.30 3.85C111.30 3.99 111.26 4.90 111.26 4.97C111.26 5.12 111.33 5.17 111.51 5.17C111.71 5.17 111.78 5.17 111.78 5.03C111.78 3.93 111.83 3.40 111.83 3.14C111.83 2.94 111.75 2.94 111.55 2.94C111.40 2.94 111.34 2.98 111.33 3.16C111.33 3.23 110.68 3.28 109.84 3.28L104.85 3.28C104.19 3.28 103.38 3.28 103.38 3.21L103.38 3.07C103.38 2.94 103.25 2.94 103.15 2.94C102.93 2.94 102.90 3.00 102.89 3.19C102.83 3.89 102.66 4.97 102.66 5.01ZM119.59 12.39C119.59 12.63 119.59 12.68 119.78 12.68C120.11 12.68 121.04 12.64 121.46 12.64C121.88 12.64 122.71 12.68 123.03 12.68C123.20 12.68 123.20 12.61 123.20 12.40C123.20 12.24 123.20 12.18 123.03 12.18L122.11 12.18C122.02 12.18 121.98 9.93 121.98 8.20C121.98 8.01 121.98 8.01 122.11 8.01L127.34 8.01C127.41 8.01 127.43 8.01 127.43 8.18L127.43 9.91C127.43 11.05 127.41 12.18 127.36 12.18L126.59 12.18C126.36 12.18 126.32 12.19 126.32 12.39C126.32 12.63 126.34 12.68 126.53 12.68C126.85 12.68 127.69 12.64 128.11 12.64C128.53 12.64 129.12 12.68 129.44 12.68C129.61 12.68 129.63 12.61 129.63 12.40C129.63 12.24 129.61 12.18 129.44 12.18L128.70 12.18C128.66 12.18 128.65 9.27 128.65 7.04C128.65 5.40 128.65 3.70 128.69 3.70L129.30 3.70C129.53 3.70 129.57 3.68 129.57 3.49C129.57 3.25 129.56 3.19 129.36 3.19C129.22 3.19 128.59 3.23 128.00 3.23C127.33 3.23 126.73 3.19 126.50 3.19C126.31 3.19 126.28 3.22 126.28 3.44C126.28 3.67 126.35 3.70 126.52 3.70L127.32 3.70C127.37 3.70 127.43 4.79 127.43 5.71L127.43 7.42C127.43 7.59 127.43 7.59 127.26 7.59L122.15 7.59C121.98 7.59 121.98 7.59 121.98 7.38C121.98 6.96 121.97 6.23 121.97 5.53C121.97 4.66 121.98 3.70 122.04 3.70L122.81 3.70C123.03 3.70 123.07 3.68 123.07 3.49C123.07 3.25 123.06 3.19 122.86 3.19C122.54 3.19 121.95 3.23 121.35 3.23C120.76 3.23 120.27 3.19 120.05 3.19C119.87 3.19 119.77 3.21 119.77 3.44C119.77 3.68 119.88 3.70 120.05 3.70L120.67 3.70C120.72 3.70 120.74 5.59 120.74 7.18L120.74 8.61C120.74 10.08 120.72 12.18 120.65 12.18L119.84 12.18C119.62 12.18 119.59 12.19 119.59 12.39ZM137.66 12.39C137.66 12.63 137.69 12.68 137.89 12.68C138.21 12.68 139.17 12.64 139.59 12.64C140.01 12.64 144.52 12.68 144.84 12.68C144.97 12.68 145.12 12.66 145.12 12.49C145.12 12.07 145.17 11.23 145.17 10.53C145.17 10.39 145.01 10.39 144.89 10.39C144.77 10.39 144.65 10.39 144.65 10.51C144.63 11.06 144.63 11.41 144.61 11.76C144.58 12.01 144.58 12.04 144.48 12.04C144.33 12.04 141.69 12.08 140.20 12.08C140.13 12.08 140.08 10.11 140.04 8.26C140.04 8.06 140.08 8.09 140.22 8.09L142.51 8.09C143.21 8.09 143.23 8.20 143.23 8.30L143.23 9.00C143.23 9.14 143.42 9.14 143.53 9.14C143.63 9.14 143.75 9.13 143.75 9.02C143.75 8.83 143.72 8.33 143.72 7.83C143.72 7.32 143.75 6.83 143.75 6.71C143.75 6.59 143.61 6.58 143.51 6.58C143.40 6.58 143.23 6.59 143.23 6.72L143.23 7.45C143.23 7.62 142.79 7.63 142.51 7.63L140.17 7.63C140.06 7.63 140.04 7.63 140.04 7.45C140.03 6.75 140.01 6.06 140.01 5.46C140.01 5.12 140.01 3.71 140.10 3.71C141.33 3.71 143.84 3.75 143.84 3.81C143.84 3.99 143.79 4.83 143.79 4.89C143.79 5.04 143.86 5.10 144.05 5.10C144.24 5.10 144.31 5.08 144.31 4.94C144.31 3.85 144.37 3.36 144.37 3.09C144.37 2.91 144.28 2.90 144.09 2.90C143.89 2.90 143.89 2.95 143.86 3.11C143.85 3.25 143.92 3.25 143.01 3.25C142.39 3.25 140.25 3.29 139.48 3.29C138.99 3.29 138.05 3.25 137.96 3.25C137.83 3.25 137.77 3.30 137.77 3.49C137.77 3.72 137.84 3.74 138.01 3.74L138.67 3.74C138.73 3.74 138.80 4.79 138.80 5.71C138.80 5.80 138.85 8.27 138.85 9.83L138.85 11.17C138.85 11.84 138.82 12.18 138.80 12.18L137.94 12.18C137.72 12.18 137.66 12.21 137.66 12.39ZM162.67 5.01C162.67 5.17 162.85 5.17 162.97 5.17C163.13 5.17 163.17 5.15 163.18 4.97L163.30 3.89C163.31 3.81 163.86 3.75 164.61 3.75L166.60 3.75C166.66 3.75 166.68 4.35 166.68 4.97C166.68 6.43 166.63 12.18 166.50 12.18L165.63 12.18C165.41 12.18 165.37 12.19 165.37 12.39C165.37 12.63 165.38 12.68 165.58 12.68C165.90 12.68 166.88 12.64 167.30 12.64C167.72 12.64 168.66 12.68 168.98 12.68C169.15 12.68 169.18 12.61 169.18 12.40C169.18 12.24 169.15 12.18 168.98 12.18L167.99 12.18C167.96 12.18 167.96 11.76 167.96 11.31C167.96 9.56 168.04 5.96 168.04 5.92C168.06 5.18 168.06 3.75 168.15 3.75L169.76 3.75C170.48 3.75 171.30 3.78 171.30 3.85C171.30 3.99 171.26 4.90 171.26 4.97C171.26 5.12 171.33 5.17 171.51 5.17C171.71 5.17 171.78 5.17 171.78 5.03C171.78 3.93 171.84 3.40 171.84 3.14C171.84 2.94 171.75 2.94 171.56 2.94C171.40 2.94 171.35 2.98 171.33 3.16C171.33 3.23 170.69 3.28 169.85 3.28L164.85 3.28C164.19 3.28 163.38 3.28 163.38 3.21L163.38 3.07C163.38 2.94 163.25 2.94 163.16 2.94C162.93 2.94 162.90 3.00 162.89 3.19C162.83 3.89 162.67 4.97 162.67 5.01ZM179.45 12.39C179.45 12.63 179.49 12.68 179.69 12.68C180.01 12.68 180.77 12.64 181.48 12.64C182.14 12.64 182.94 12.68 183.16 12.68C183.33 12.68 183.36 12.61 183.36 12.40C183.36 12.24 183.33 12.18 183.16 12.18L182.20 12.18C182.10 12.18 182.07 9.55 182.07 7.76L182.07 5.87C182.07 5.14 182.10 3.70 182.20 3.70L183.11 3.70C183.33 3.70 183.36 3.68 183.36 3.49C183.36 3.25 183.33 3.19 183.16 3.19C182.84 3.19 182.17 3.23 181.51 3.23C180.70 3.23 179.98 3.19 179.76 3.19C179.58 3.19 179.51 3.21 179.51 3.44C179.51 3.68 179.59 3.70 179.76 3.70L180.68 3.70C180.73 3.70 180.80 4.79 180.80 5.71L180.80 7.08C180.80 8.92 180.78 12.18 180.67 12.18L179.75 12.18C179.52 12.18 179.45 12.19 179.45 12.39ZM191.18 12.39C191.18 12.63 191.21 12.68 191.41 12.68C191.65 12.68 192.15 12.64 192.57 12.64C192.99 12.64 193.48 12.68 193.80 12.68C193.97 12.68 194.00 12.61 194.00 12.40C194.00 12.24 193.97 12.18 193.80 12.18L192.84 12.18C192.78 12.18 192.77 11.54 192.77 10.79C192.77 8.96 192.81 6.13 192.88 4.28C192.91 3.88 192.93 3.91 193.07 4.27L196.34 12.32C196.43 12.54 196.50 12.74 196.62 12.74C196.71 12.74 196.78 12.63 196.87 12.45C197.20 11.79 197.39 11.75 197.65 11.09L200.24 4.47C200.37 4.16 200.41 4.02 200.42 4.47C200.45 5.66 200.49 8.47 200.49 9.74C200.49 10.99 200.45 12.18 200.40 12.18L199.77 12.18C199.54 12.18 199.47 12.19 199.47 12.39C199.47 12.63 199.50 12.68 199.70 12.68C199.89 12.68 200.59 12.64 201.19 12.64C201.61 12.64 202.37 12.68 202.69 12.68C202.86 12.68 202.89 12.61 202.89 12.40C202.89 12.22 202.83 12.18 202.66 12.18L201.94 12.18C201.82 12.18 201.73 8.44 201.73 6.03L201.73 4.77C201.73 4.17 201.75 3.77 201.80 3.70L202.45 3.70C202.68 3.70 202.72 3.68 202.72 3.49C202.72 3.25 202.71 3.19 202.51 3.19C202.19 3.19 201.50 3.23 201.08 3.23L200.41 3.23C200.19 3.23 200.16 3.29 200.05 3.58L197.30 10.72C197.22 10.95 197.19 11.02 197.08 10.74L194.14 3.40C194.07 3.22 194.01 3.19 193.87 3.19C193.79 3.19 193.30 3.23 192.99 3.23C192.49 3.23 191.63 3.19 191.44 3.19C191.30 3.19 191.30 3.26 191.30 3.47C191.30 3.64 191.30 3.70 191.44 3.70L192.14 3.70C192.40 3.70 192.40 3.72 192.40 3.84C192.40 4.82 192.19 9.94 192.15 10.79C192.11 11.55 192.11 12.18 192.05 12.18L191.48 12.18C191.25 12.18 191.18 12.19 191.18 12.39ZM210.78 12.39C210.78 12.63 210.81 12.68 211.01 12.68C211.33 12.68 212.30 12.64 212.72 12.64C213.14 12.64 217.64 12.68 217.97 12.68C218.09 12.68 218.25 12.66 218.25 12.49C218.25 12.07 218.29 11.23 218.29 10.53C218.29 10.39 218.13 10.39 218.01 10.39C217.90 10.39 217.77 10.39 217.77 10.51C217.76 11.06 217.76 11.41 217.73 11.76C217.70 12.01 217.70 12.04 217.60 12.04C217.45 12.04 214.82 12.08 213.32 12.08C213.25 12.08 213.21 10.11 213.16 8.26C213.16 8.06 213.21 8.09 213.35 8.09L215.63 8.09C216.33 8.09 216.36 8.20 216.36 8.30L216.36 9.00C216.36 9.14 216.54 9.14 216.65 9.14C216.75 9.14 216.87 9.13 216.87 9.02C216.87 8.83 216.85 8.33 216.85 7.83C216.85 7.32 216.87 6.83 216.87 6.71C216.87 6.59 216.73 6.58 216.64 6.58C216.52 6.58 216.36 6.59 216.36 6.72L216.36 7.45C216.36 7.62 215.91 7.63 215.63 7.63L213.29 7.63C213.18 7.63 213.16 7.63 213.16 7.45C213.15 6.75 213.14 6.06 213.14 5.46C213.14 5.12 213.14 3.71 213.22 3.71C214.45 3.71 216.96 3.75 216.96 3.81C216.96 3.99 216.92 4.83 216.92 4.89C216.92 5.04 216.99 5.10 217.17 5.10C217.36 5.10 217.43 5.08 217.43 4.94C217.43 3.85 217.49 3.36 217.49 3.09C217.49 2.91 217.41 2.90 217.21 2.90C217.01 2.90 217.01 2.95 216.99 3.11C216.97 3.25 217.04 3.25 216.13 3.25C215.52 3.25 213.37 3.29 212.60 3.29C212.11 3.29 211.18 3.25 211.08 3.25C210.95 3.25 210.90 3.30 210.90 3.49C210.90 3.72 210.97 3.74 211.13 3.74L211.79 3.74C211.85 3.74 211.92 4.79 211.92 5.71C211.92 5.80 211.97 8.27 211.97 9.83L211.97 11.17C211.97 11.84 211.95 12.18 211.92 12.18L211.06 12.18C210.84 12.18 210.78 12.21 210.78 12.39ZM235.79 5.01C235.79 5.17 235.97 5.17 236.10 5.17C236.25 5.17 236.29 5.15 236.31 4.97L236.42 3.89C236.43 3.81 236.98 3.75 237.73 3.75L239.72 3.75C239.78 3.75 239.81 4.35 239.81 4.97C239.81 6.43 239.75 12.18 239.62 12.18L238.76 12.18C238.53 12.18 238.49 12.19 238.49 12.39C238.49 12.63 238.50 12.68 238.70 12.68C239.02 12.68 240.00 12.64 240.42 12.64C240.84 12.64 241.78 12.68 242.10 12.68C242.27 12.68 242.30 12.61 242.30 12.40C242.30 12.24 242.27 12.18 242.10 12.18L241.11 12.18C241.08 12.18 241.08 11.76 241.08 11.31C241.08 9.56 241.16 5.96 241.16 5.92C241.18 5.18 241.18 3.75 241.28 3.75L242.89 3.75C243.60 3.75 244.43 3.78 244.43 3.85C244.43 3.99 244.38 4.90 244.38 4.97C244.38 5.12 244.45 5.17 244.64 5.17C244.83 5.17 244.90 5.17 244.90 5.03C244.90 3.93 244.96 3.40 244.96 3.14C244.96 2.94 244.87 2.94 244.68 2.94C244.52 2.94 244.47 2.98 244.45 3.16C244.45 3.23 243.81 3.28 242.97 3.28L237.97 3.28C237.31 3.28 236.50 3.28 236.50 3.21L236.50 3.07C236.50 2.94 236.38 2.94 236.28 2.94C236.05 2.94 236.03 3.00 236.01 3.19C235.96 3.89 235.79 4.97 235.79 5.01ZM252.22 8.15C252.22 11.17 254.56 12.80 256.82 12.80C259.60 12.80 261.58 10.89 261.58 8.06C261.58 5.33 259.83 3.11 257.03 3.11C254.42 3.11 252.22 5.10 252.22 8.15ZM253.62 7.77C253.62 5.64 254.91 3.58 256.89 3.58C259.13 3.58 260.20 5.81 260.20 7.94C260.20 10.08 259.10 12.32 256.83 12.32C254.84 12.32 253.62 10.28 253.62 7.77ZM279.22 5.01C279.22 5.17 279.40 5.17 279.52 5.17C279.68 5.17 279.72 5.15 279.73 4.97L279.85 3.89C279.86 3.81 280.41 3.75 281.16 3.75L283.15 3.75C283.21 3.75 283.23 4.35 283.23 4.97C283.23 6.43 283.18 12.18 283.05 12.18L282.18 12.18C281.96 12.18 281.92 12.19 281.92 12.39C281.92 12.63 281.93 12.68 282.13 12.68C282.45 12.68 283.43 12.64 283.85 12.64C284.27 12.64 285.21 12.68 285.53 12.68C285.70 12.68 285.73 12.61 285.73 12.40C285.73 12.24 285.70 12.18 285.53 12.18L284.54 12.18C284.51 12.18 284.51 11.76 284.51 11.31C284.51 9.56 284.59 5.96 284.59 5.92C284.61 5.18 284.61 3.75 284.70 3.75L286.31 3.75C287.03 3.75 287.85 3.78 287.85 3.85C287.85 3.99 287.81 4.90 287.81 4.97C287.81 5.12 287.88 5.17 288.06 5.17C288.26 5.17 288.33 5.17 288.33 5.03C288.33 3.93 288.39 3.40 288.39 3.14C288.39 2.94 288.30 2.94 288.11 2.94C287.95 2.94 287.90 2.98 287.88 3.16C287.88 3.23 287.24 3.28 286.40 3.28L281.40 3.28C280.74 3.28 279.93 3.28 279.93 3.21L279.93 3.07C279.93 2.94 279.80 2.94 279.71 2.94C279.48 2.94 279.45 3.00 279.44 3.19C279.38 3.89 279.22 4.97 279.22 5.01ZM296.14 3.51C296.14 3.72 296.21 3.79 296.41 3.79L297.22 3.77C297.32 3.77 297.36 6.61 297.36 8.55L297.36 10.42C297.36 11.30 297.35 12.18 297.30 12.18L296.70 12.18C296.48 12.18 296.41 12.19 296.41 12.39C296.41 12.63 296.45 12.68 296.65 12.68C296.77 12.68 297.60 12.64 298.02 12.64C298.44 12.64 299.21 12.68 299.53 12.68C299.70 12.68 299.73 12.61 299.73 12.40C299.73 12.24 299.70 12.18 299.53 12.18L298.72 12.18C298.65 12.18 298.56 9.18 298.56 8.37C298.56 8.30 298.56 8.26 298.68 8.26C299.07 8.26 299.67 8.27 299.96 8.27C302.20 8.32 302.34 10.00 302.34 11.68L302.34 12.49C302.34 12.61 302.40 12.64 302.50 12.64C302.50 12.64 303.94 12.68 304.42 12.68C304.58 12.68 304.64 12.64 304.64 12.53C304.64 12.24 304.58 12.18 304.43 12.18L303.79 12.18C303.69 12.18 303.66 12.14 303.63 11.31C303.55 8.99 302.18 8.34 301.27 8.05C301.13 8.01 301.15 8.01 301.27 7.95C301.85 7.69 303.17 6.94 303.17 5.63C303.17 3.63 301.48 3.21 300.08 3.21C299.75 3.21 298.47 3.29 298.05 3.29C297.63 3.29 296.65 3.26 296.42 3.26C296.24 3.26 296.14 3.28 296.14 3.51ZM298.56 7.80L298.56 4.40C298.56 4.05 298.59 3.68 298.63 3.68C298.84 3.65 299.12 3.65 299.35 3.65C300.65 3.65 301.90 4.47 301.90 5.82C301.90 6.99 301.35 7.57 300.69 7.88C300.65 7.90 300.61 7.90 300.54 7.90C300.06 7.88 299.35 7.88 298.75 7.87C298.58 7.87 298.56 7.85 298.56 7.80ZM311.28 3.44C311.28 3.68 311.36 3.70 311.53 3.70L311.93 3.70C312.06 3.70 314.31 7.74 314.72 8.50C314.78 8.60 314.82 8.65 314.82 8.81C314.82 10.50 314.80 12.18 314.68 12.18L313.96 12.18C313.74 12.18 313.70 12.19 313.70 12.39C313.70 12.63 313.71 12.68 313.91 12.68C314.10 12.68 314.92 12.64 315.50 12.64C316.33 12.64 316.86 12.68 317.18 12.68C317.35 12.68 317.38 12.61 317.38 12.40C317.38 12.24 317.35 12.18 317.18 12.18L316.22 12.18C316.12 12.18 316.09 9.72 316.09 8.22C316.09 8.18 316.09 8.15 316.13 8.09C316.68 7.22 318.63 3.70 318.70 3.70L319.17 3.70C319.34 3.70 319.44 3.68 319.44 3.44C319.44 3.22 319.35 3.19 319.17 3.19C318.95 3.19 318.71 3.23 318.11 3.23C317.52 3.23 317.18 3.19 317.02 3.19C316.82 3.19 316.78 3.25 316.78 3.49C316.78 3.68 316.85 3.70 317.07 3.70L317.80 3.70C317.81 3.70 317.83 3.71 317.83 3.74C317.83 4.05 316.26 6.99 315.88 7.71C315.77 7.92 315.77 7.88 315.66 7.67C315.25 6.89 313.96 4.56 313.67 3.85C313.61 3.71 313.60 3.70 313.78 3.70L314.61 3.70C314.83 3.70 314.86 3.68 314.86 3.49C314.86 3.25 314.82 3.19 314.66 3.19C314.43 3.19 313.81 3.23 313.01 3.23C312.20 3.23 311.71 3.19 311.53 3.19C311.35 3.19 311.28 3.21 311.28 3.44ZM337.06 5.77C337.06 9.07 342.05 8.20 342.05 10.65C342.05 11.59 341.21 12.31 340.23 12.31C339.40 12.31 337.81 11.83 337.78 11.47L337.69 10.15C337.68 9.97 337.61 9.91 337.43 9.91L337.36 9.91C337.15 9.91 337.15 10.00 337.15 10.12C337.15 10.32 337.26 11.66 337.29 12.17C337.30 12.38 338.56 12.85 340.10 12.85C341.67 12.85 343.28 11.87 343.28 10.11C343.28 6.79 338.31 7.87 338.31 5.32C338.31 4.31 339.09 3.56 340.13 3.56C341.15 3.56 342.24 4.58 342.24 4.89C342.24 5.01 342.20 5.73 342.20 5.78C342.20 5.92 342.24 5.99 342.51 5.99C342.75 5.99 342.76 5.94 342.76 5.75C342.76 5.04 342.85 3.68 342.85 3.53C342.85 3.30 342.80 3.29 342.54 3.29C342.31 3.29 342.30 3.32 342.29 3.53C342.29 3.61 342.27 3.78 342.23 3.78C342.17 3.78 342.09 3.74 342.02 3.68C341.22 3.14 340.61 3.08 340.10 3.08C338.58 3.08 337.06 4.17 337.06 5.77ZM351.18 8.15C351.18 11.17 353.51 12.80 355.77 12.80C358.55 12.80 360.53 10.89 360.53 8.06C360.53 5.33 358.78 3.11 355.98 3.11C353.37 3.11 351.18 5.10 351.18 8.15ZM352.58 7.77C352.58 5.64 353.86 3.58 355.84 3.58C358.08 3.58 359.16 5.81 359.16 7.94C359.16 10.08 358.05 12.32 355.78 12.32C353.79 12.32 352.58 10.28 352.58 7.77ZM368.56 12.39C368.56 12.63 368.59 12.68 368.79 12.68C369.03 12.68 369.53 12.64 369.95 12.64C370.37 12.64 370.86 12.68 371.18 12.68C371.35 12.68 371.38 12.61 371.38 12.40C371.38 12.24 371.35 12.18 371.18 12.18L370.22 12.18C370.16 12.18 370.15 11.54 370.15 10.79C370.15 8.96 370.19 6.13 370.26 4.28C370.29 3.88 370.31 3.91 370.45 4.27L373.72 12.32C373.81 12.54 373.88 12.74 374.00 12.74C374.09 12.74 374.16 12.63 374.25 12.45C374.58 11.79 374.77 11.75 375.03 11.09L377.62 4.47C377.75 4.16 377.79 4.02 377.80 4.47C377.83 5.66 377.87 8.47 377.87 9.74C377.87 10.99 377.83 12.18 377.78 12.18L377.15 12.18C376.92 12.18 376.85 12.19 376.85 12.39C376.85 12.63 376.88 12.68 377.08 12.68C377.27 12.68 377.97 12.64 378.57 12.64C378.99 12.64 379.75 12.68 380.07 12.68C380.24 12.68 380.27 12.61 380.27 12.40C380.27 12.22 380.21 12.18 380.04 12.18L379.32 12.18C379.20 12.18 379.11 8.44 379.11 6.03L379.11 4.77C379.11 4.17 379.13 3.77 379.18 3.70L379.83 3.70C380.06 3.70 380.10 3.68 380.10 3.49C380.10 3.25 380.09 3.19 379.89 3.19C379.57 3.19 378.88 3.23 378.46 3.23L377.79 3.23C377.57 3.23 377.54 3.29 377.43 3.58L374.68 10.72C374.60 10.95 374.57 11.02 374.46 10.74L371.52 3.40C371.45 3.22 371.39 3.19 371.25 3.19C371.17 3.19 370.68 3.23 370.37 3.23C369.87 3.23 369.01 3.19 368.82 3.19C368.68 3.19 368.68 3.26 368.68 3.47C368.68 3.64 368.68 3.70 368.82 3.70L369.52 3.70C369.78 3.70 369.78 3.72 369.78 3.84C369.78 4.82 369.57 9.94 369.53 10.79C369.49 11.55 369.49 12.18 369.43 12.18L368.86 12.18C368.63 12.18 368.56 12.19 368.56 12.39ZM388.16 12.39C388.16 12.63 388.19 12.68 388.39 12.68C388.71 12.68 389.68 12.64 390.10 12.64C390.52 12.64 395.02 12.68 395.35 12.68C395.47 12.68 395.63 12.66 395.63 12.49C395.63 12.07 395.67 11.23 395.67 10.53C395.67 10.39 395.51 10.39 395.39 10.39C395.28 10.39 395.15 10.39 395.15 10.51C395.14 11.06 395.14 11.41 395.11 11.76C395.08 12.01 395.08 12.04 394.98 12.04C394.83 12.04 392.20 12.08 390.70 12.08C390.63 12.08 390.59 10.11 390.54 8.26C390.54 8.06 390.59 8.09 390.73 8.09L393.01 8.09C393.71 8.09 393.74 8.20 393.74 8.30L393.74 9.00C393.74 9.14 393.92 9.14 394.03 9.14C394.13 9.14 394.25 9.13 394.25 9.02C394.25 8.83 394.23 8.33 394.23 7.83C394.23 7.32 394.25 6.83 394.25 6.71C394.25 6.59 394.11 6.58 394.02 6.58C393.90 6.58 393.74 6.59 393.74 6.72L393.74 7.45C393.74 7.62 393.29 7.63 393.01 7.63L390.67 7.63C390.56 7.63 390.54 7.63 390.54 7.45C390.53 6.75 390.52 6.06 390.52 5.46C390.52 5.12 390.52 3.71 390.60 3.71C391.83 3.71 394.34 3.75 394.34 3.81C394.34 3.99 394.30 4.83 394.30 4.89C394.30 5.04 394.37 5.10 394.55 5.10C394.74 5.10 394.81 5.08 394.81 4.94C394.81 3.85 394.87 3.36 394.87 3.09C394.87 2.91 394.79 2.90 394.59 2.90C394.39 2.90 394.39 2.95 394.37 3.11C394.35 3.25 394.42 3.25 393.51 3.25C392.90 3.25 390.75 3.29 389.98 3.29C389.49 3.29 388.56 3.25 388.46 3.25C388.33 3.25 388.28 3.30 388.28 3.49C388.28 3.72 388.35 3.74 388.51 3.74L389.17 3.74C389.23 3.74 389.30 4.79 389.30 5.71C389.30 5.80 389.35 8.27 389.35 9.83L389.35 11.17C389.35 11.84 389.33 12.18 389.30 12.18L388.44 12.18C388.22 12.18 388.16 12.21 388.16 12.39ZM403.37 5.01C403.37 5.17 403.55 5.17 403.68 5.17C403.83 5.17 403.87 5.15 403.89 4.97L404.00 3.89C404.01 3.81 404.56 3.75 405.31 3.75L407.30 3.75C407.36 3.75 407.39 4.35 407.39 4.97C407.39 6.43 407.33 12.18 407.20 12.18L406.34 12.18C406.11 12.18 406.07 12.19 406.07 12.39C406.07 12.63 406.08 12.68 406.28 12.68C406.60 12.68 407.58 12.64 408.00 12.64C408.42 12.64 409.36 12.68 409.68 12.68C409.85 12.68 409.88 12.61 409.88 12.40C409.88 12.24 409.85 12.18 409.68 12.18L408.69 12.18C408.66 12.18 408.66 11.76 408.66 11.31C408.66 9.56 408.74 5.96 408.74 5.92C408.76 5.18 408.76 3.75 408.86 3.75L410.47 3.75C411.18 3.75 412.01 3.78 412.01 3.85C412.01 3.99 411.96 4.90 411.96 4.97C411.96 5.12 412.03 5.17 412.22 5.17C412.41 5.17 412.48 5.17 412.48 5.03C412.48 3.93 412.54 3.40 412.54 3.14C412.54 2.94 412.45 2.94 412.26 2.94C412.10 2.94 412.05 2.98 412.03 3.16C412.03 3.23 411.39 3.28 410.55 3.28L405.55 3.28C404.89 3.28 404.08 3.28 404.08 3.21L404.08 3.07C404.08 2.94 403.96 2.94 403.86 2.94C403.63 2.94 403.61 3.00 403.59 3.19C403.54 3.89 403.37 4.97 403.37 5.01ZM420.29 12.39C420.29 12.63 420.29 12.68 420.49 12.68C420.81 12.68 421.75 12.64 422.17 12.64C422.59 12.64 423.42 12.68 423.74 12.68C423.91 12.68 423.91 12.61 423.91 12.40C423.91 12.24 423.91 12.18 423.74 12.18L422.81 12.18C422.73 12.18 422.69 9.93 422.69 8.20C422.69 8.01 422.69 8.01 422.81 8.01L428.05 8.01C428.12 8.01 428.13 8.01 428.13 8.18L428.13 9.91C428.13 11.05 428.12 12.18 428.06 12.18L427.29 12.18C427.07 12.18 427.03 12.19 427.03 12.39C427.03 12.63 427.04 12.68 427.24 12.68C427.56 12.68 428.40 12.64 428.82 12.64C429.24 12.64 429.83 12.68 430.15 12.68C430.32 12.68 430.33 12.61 430.33 12.40C430.33 12.24 430.32 12.18 430.15 12.18L429.41 12.18C429.37 12.18 429.35 9.27 429.35 7.04C429.35 5.40 429.35 3.70 429.39 3.70L430.01 3.70C430.23 3.70 430.28 3.68 430.28 3.49C430.28 3.25 430.26 3.19 430.07 3.19C429.93 3.19 429.30 3.23 428.71 3.23C428.04 3.23 427.43 3.19 427.21 3.19C427.01 3.19 426.99 3.22 426.99 3.44C426.99 3.67 427.06 3.70 427.22 3.70L428.02 3.70C428.08 3.70 428.13 4.79 428.13 5.71L428.13 7.42C428.13 7.59 428.13 7.59 427.97 7.59L422.86 7.59C422.69 7.59 422.69 7.59 422.69 7.38C422.69 6.96 422.67 6.23 422.67 5.53C422.67 4.66 422.69 3.70 422.74 3.70L423.51 3.70C423.74 3.70 423.78 3.68 423.78 3.49C423.78 3.25 423.77 3.19 423.57 3.19C423.25 3.19 422.66 3.23 422.06 3.23C421.47 3.23 420.98 3.19 420.76 3.19C420.57 3.19 420.48 3.21 420.48 3.44C420.48 3.68 420.59 3.70 420.76 3.70L421.37 3.70C421.43 3.70 421.44 5.59 421.44 7.18L421.44 8.61C421.44 10.08 421.43 12.18 421.36 12.18L420.55 12.18C420.32 12.18 420.29 12.19 420.29 12.39ZM438.23 12.39C438.23 12.63 438.27 12.68 438.47 12.68C438.79 12.68 439.54 12.64 440.26 12.64C440.92 12.64 441.71 12.68 441.94 12.68C442.11 12.68 442.13 12.61 442.13 12.40C442.13 12.24 442.11 12.18 441.94 12.18L440.97 12.18C440.87 12.18 440.85 9.55 440.85 7.76L440.85 5.87C440.85 5.14 440.87 3.70 440.97 3.70L441.88 3.70C442.11 3.70 442.13 3.68 442.13 3.49C442.13 3.25 442.11 3.19 441.94 3.19C441.62 3.19 440.94 3.23 440.29 3.23C439.47 3.23 438.76 3.19 438.54 3.19C438.35 3.19 438.28 3.21 438.28 3.44C438.28 3.68 438.37 3.70 438.54 3.70L439.46 3.70C439.50 3.70 439.57 4.79 439.57 5.71L439.57 7.08C439.57 8.92 439.56 12.18 439.45 12.18L438.52 12.18C438.30 12.18 438.23 12.19 438.23 12.39ZM450.03 12.39C450.03 12.63 450.04 12.68 450.24 12.68C450.42 12.68 450.80 12.64 451.42 12.64C452.05 12.64 452.61 12.68 452.93 12.68C453.10 12.68 453.10 12.61 453.10 12.40C453.10 12.24 453.10 12.18 452.93 12.18L451.72 12.18C451.68 12.18 451.67 11.54 451.67 10.79C451.67 9.46 451.68 7.48 451.68 5.99C451.68 5.25 451.68 4.84 451.70 4.28C451.70 4.02 451.77 4.14 451.89 4.28L458.78 12.66C458.86 12.75 458.95 12.89 459.06 12.89C459.17 12.89 459.24 12.77 459.24 12.54C459.24 12.39 459.41 6.65 459.42 4.48C459.42 4.06 459.45 3.70 459.48 3.70L460.11 3.70C460.33 3.70 460.39 3.68 460.39 3.49C460.39 3.25 460.39 3.19 460.19 3.19C460.00 3.19 459.56 3.23 459.00 3.23C458.39 3.23 457.59 3.19 457.49 3.19C457.32 3.19 457.32 3.26 457.32 3.47C457.32 3.64 457.32 3.70 457.49 3.70L458.79 3.70C458.81 3.70 458.81 4.33 458.81 4.44C458.81 5.85 458.84 8.33 458.84 9.70L458.84 10.29C458.84 10.57 458.82 10.65 458.60 10.37L452.91 3.39C452.80 3.25 452.77 3.19 452.61 3.19C452.52 3.19 452.14 3.23 451.84 3.23C451.54 3.23 450.46 3.19 450.27 3.19C450.10 3.19 450.07 3.26 450.07 3.47C450.07 3.64 450.10 3.70 450.27 3.70L451.18 3.70C451.18 4.17 451.14 8.53 451.07 10.79C451.04 11.69 451.05 12.18 450.94 12.18L450.30 12.18C450.07 12.18 450.03 12.19 450.03 12.39ZM468.50 7.91C468.50 11.40 470.86 12.89 473.45 12.89C475.34 12.89 477.34 11.89 477.34 11.58C477.34 11.12 477.36 10.68 477.36 10.33C477.36 9.81 477.37 9.56 477.50 9.56L477.93 9.56C478.07 9.56 478.09 9.39 478.09 9.30C478.09 9.18 478.07 9.06 477.93 9.06C477.71 9.06 477.34 9.10 476.67 9.10C476.22 9.10 475.48 9.07 474.80 9.06C474.66 9.06 474.66 9.24 474.66 9.35C474.66 9.45 474.68 9.56 474.81 9.56L476.03 9.56C476.07 9.56 476.13 9.87 476.13 10.33C476.13 10.82 476.11 11.41 476.08 11.65C476.07 11.76 475.43 12.39 473.84 12.39C471.60 12.39 470.01 10.29 470.01 7.94C470.01 5.42 471.56 3.54 473.56 3.54C475.45 3.54 476.63 4.87 476.63 5.03C476.63 5.15 476.57 6.12 476.57 6.17C476.57 6.31 476.62 6.36 476.88 6.36C477.08 6.36 477.15 6.33 477.15 6.15C477.15 5.43 477.19 3.75 477.19 3.56C477.19 3.36 477.09 3.33 476.88 3.33C476.66 3.33 476.63 3.39 476.63 3.56L476.63 3.91C476.63 3.99 476.59 4.02 476.46 3.92C476.18 3.72 475.19 3.08 473.62 3.08C470.78 3.08 468.50 4.79 468.50 7.91ZM495.92 12.39C495.92 12.63 495.94 12.68 496.13 12.68C496.31 12.68 496.69 12.64 497.31 12.64C497.94 12.64 498.50 12.68 498.82 12.68C498.99 12.68 498.99 12.61 498.99 12.40C498.99 12.24 498.99 12.18 498.82 12.18L497.62 12.18C497.57 12.18 497.56 11.54 497.56 10.79C497.56 9.46 497.57 7.48 497.57 5.99C497.57 5.25 497.57 4.84 497.59 4.28C497.59 4.02 497.66 4.14 497.78 4.28L504.67 12.66C504.76 12.75 504.84 12.89 504.95 12.89C505.06 12.89 505.13 12.77 505.13 12.54C505.13 12.39 505.30 6.65 505.32 4.48C505.32 4.06 505.34 3.70 505.37 3.70L506.00 3.70C506.23 3.70 506.28 3.68 506.28 3.49C506.28 3.25 506.28 3.19 506.09 3.19C505.89 3.19 505.46 3.23 504.90 3.23C504.28 3.23 503.48 3.19 503.38 3.19C503.22 3.19 503.22 3.26 503.22 3.47C503.22 3.64 503.22 3.70 503.38 3.70L504.69 3.70C504.70 3.70 504.70 4.33 504.70 4.44C504.70 5.85 504.73 8.33 504.73 9.70L504.73 10.29C504.73 10.57 504.71 10.65 504.49 10.37L498.81 3.39C498.69 3.25 498.67 3.19 498.50 3.19C498.41 3.19 498.04 3.23 497.73 3.23C497.43 3.23 496.36 3.19 496.16 3.19C495.99 3.19 495.96 3.26 495.96 3.47C495.96 3.64 495.99 3.70 496.16 3.70L497.07 3.70C497.07 4.17 497.03 8.53 496.96 10.79C496.93 11.69 496.94 12.18 496.83 12.18L496.19 12.18C495.96 12.18 495.92 12.19 495.92 12.39ZM514.32 12.39C514.32 12.63 514.35 12.68 514.54 12.68C514.86 12.68 515.83 12.64 516.25 12.64C516.67 12.64 521.18 12.68 521.50 12.68C521.63 12.68 521.78 12.66 521.78 12.49C521.78 12.07 521.82 11.23 521.82 10.53C521.82 10.39 521.67 10.39 521.54 10.39C521.43 10.39 521.30 10.39 521.30 10.51C521.29 11.06 521.29 11.41 521.26 11.76C521.23 12.01 521.23 12.04 521.14 12.04C520.98 12.04 518.35 12.08 516.85 12.08C516.78 12.08 516.74 10.11 516.70 8.26C516.70 8.06 516.74 8.09 516.88 8.09L519.16 8.09C519.86 8.09 519.89 8.20 519.89 8.30L519.89 9.00C519.89 9.14 520.07 9.14 520.18 9.14C520.28 9.14 520.41 9.13 520.41 9.02C520.41 8.83 520.38 8.33 520.38 7.83C520.38 7.32 520.41 6.83 520.41 6.71C520.41 6.59 520.27 6.58 520.17 6.58C520.06 6.58 519.89 6.59 519.89 6.72L519.89 7.45C519.89 7.62 519.44 7.63 519.16 7.63L516.82 7.63C516.71 7.63 516.70 7.63 516.70 7.45C516.68 6.75 516.67 6.06 516.67 5.46C516.67 5.12 516.67 3.71 516.75 3.71C517.99 3.71 520.49 3.75 520.49 3.81C520.49 3.99 520.45 4.83 520.45 4.89C520.45 5.04 520.52 5.10 520.70 5.10C520.90 5.10 520.97 5.08 520.97 4.94C520.97 3.85 521.02 3.36 521.02 3.09C521.02 2.91 520.94 2.90 520.74 2.90C520.55 2.90 520.55 2.95 520.52 3.11C520.51 3.25 520.58 3.25 519.67 3.25C519.05 3.25 516.91 3.29 516.14 3.29C515.65 3.29 514.71 3.25 514.61 3.25C514.49 3.25 514.43 3.30 514.43 3.49C514.43 3.72 514.50 3.74 514.67 3.74L515.33 3.74C515.38 3.74 515.45 4.79 515.45 5.71C515.45 5.80 515.51 8.27 515.51 9.83L515.51 11.17C515.51 11.84 515.48 12.18 515.45 12.18L514.60 12.18C514.37 12.18 514.32 12.21 514.32 12.39ZM529.37 3.51C529.37 3.75 529.48 3.77 529.65 3.77L530.15 3.77C530.24 3.77 532.38 10.99 532.41 11.07C532.76 12.14 532.87 12.99 533.18 12.99C533.40 12.99 533.50 12.67 533.78 12.26C533.93 12.05 534.03 12.01 534.17 11.66L536.16 6.45C536.23 6.29 536.26 6.20 536.28 6.20C536.31 6.20 536.34 6.29 536.38 6.45C536.98 8.51 537.66 11.03 537.67 11.07C538.02 12.14 538.13 12.99 538.44 12.99C538.66 12.99 538.76 12.67 539.04 12.26C539.20 12.05 539.29 12.01 539.43 11.66L542.53 4.06C542.63 3.81 542.63 3.77 542.99 3.77C543.23 3.77 543.28 3.71 543.28 3.53C543.28 3.32 543.24 3.26 543.05 3.26C542.91 3.26 542.60 3.30 542.09 3.30C541.35 3.30 540.85 3.26 540.65 3.26C540.47 3.26 540.37 3.28 540.37 3.51C540.37 3.75 540.48 3.77 540.65 3.77L541.56 3.77C541.63 3.77 541.65 3.81 541.65 3.95C541.65 4.63 540.05 8.72 539.34 10.63C539.20 10.99 539.13 11.17 539.08 11.17C539.03 11.17 538.97 10.99 538.85 10.60C538.76 10.30 537.84 7.18 537.31 5.22C537.26 5.05 537.05 4.17 537.05 3.85C537.05 3.81 537.05 3.79 537.07 3.77L537.95 3.77C538.13 3.77 538.23 3.75 538.23 3.56C538.23 3.32 538.19 3.26 537.99 3.26C537.67 3.26 536.73 3.30 536.31 3.30C535.89 3.30 534.98 3.26 534.76 3.26C534.58 3.26 534.48 3.28 534.48 3.51C534.48 3.75 534.59 3.77 534.76 3.77L535.56 3.77C535.60 3.77 535.78 4.27 535.93 4.83C535.99 5.05 536.03 5.15 536.03 5.25C536.03 5.31 536.03 5.38 535.99 5.49L533.99 10.60C533.89 10.82 533.86 10.95 533.82 10.95C533.78 10.95 533.75 10.84 533.67 10.60C533.58 10.32 532.57 7.27 531.97 5.22C531.93 5.08 531.61 3.96 531.59 3.85C531.61 3.77 531.65 3.77 531.69 3.77L532.39 3.77C532.62 3.77 532.69 3.75 532.69 3.56C532.69 3.32 532.64 3.26 532.45 3.26C532.13 3.26 531.41 3.30 530.99 3.30C530.57 3.30 529.87 3.26 529.65 3.26C529.47 3.26 529.37 3.28 529.37 3.51Z"></path></g></svg>