<svg data-v-fde0c5aa="" xmlns="http://www.w3.org/2000/svg" viewBox="0 0 300 300" class="font"><!----><defs data-v-fde0c5aa=""><!----></defs><rect data-v-fde0c5aa="" fill="#341952" x="0" y="0" width="300px" height="300px" class="logo-background-square"></rect><defs data-v-fde0c5aa=""><!----></defs><g data-v-fde0c5aa="" id="8faed82a-79b0-4879-95be-3ce216813464" fill="#E96D77" transform="matrix(4.7200171018908,0,0,4.7200171018908,38.01759273843208,108.25144972407487)"><path d="M5.07 11.94L4.17 11.94L4.17 7.25L4.77 7.25C5.96 7.25 6.68 7.92 6.68 9.30L6.90 9.30L6.90 5.03L6.68 5.03C6.68 6.51 5.94 7.03 4.83 7.03L4.17 7.03L4.17 2.72L5.22 2.72C7.46 2.72 8.13 3.85 8.13 5.82L8.36 5.82L8.36 2.49L0.42 2.49L0.42 2.72L1.32 2.72L1.32 11.94L0.42 11.94L0.42 12.17L5.07 12.17ZM9.97 11.94L9.10 11.94L9.10 12.17L13.51 12.17L13.51 11.94L12.61 11.94L12.61 2.23C11.68 2.42 10.78 2.49 9.81 2.49L8.97 2.49L8.97 2.72L9.97 2.72ZM19.05 5.46C18.38 5.46 17.85 5.94 17.85 6.65C17.85 7.24 18.30 7.73 18.90 7.73C19.45 7.73 19.89 7.35 19.89 6.75C19.89 6.44 19.71 6.17 19.42 6.03C19.32 5.99 19.29 5.96 19.29 5.89C19.29 5.82 19.35 5.77 19.42 5.77C19.56 5.77 19.80 5.92 19.88 6.01C20.27 6.34 20.44 6.89 20.44 7.50C20.44 8.19 20.33 8.81 20.12 9.28C19.73 10.15 19.29 10.65 18.72 10.65C18.16 10.65 17.16 9.59 17.16 6.65C17.16 6.10 17.19 5.46 17.19 5.46C16.25 5.66 15.25 5.73 14.28 5.73L13.44 5.73L13.44 5.95L14.45 5.95L14.45 6.17C14.45 9.21 14.91 11.13 17.36 11.93C16.74 12.42 16.17 12.98 16.17 13.90C16.17 14.87 16.86 15.46 17.67 15.46C18.34 15.46 18.89 15.01 18.89 14.24C18.89 13.58 18.37 13.15 17.78 13.15C17.19 13.15 16.83 13.62 16.83 14.08C16.83 14.36 16.98 14.69 17.26 14.87C17.33 14.91 17.37 14.94 17.37 15.01C17.37 15.06 17.33 15.13 17.25 15.13C17.21 15.13 17.14 15.11 17.09 15.08C16.77 14.90 16.42 14.59 16.42 13.87C16.42 12.47 18.27 11.73 19.26 10.88C20.24 10.04 20.69 8.86 20.69 7.55C20.69 6.43 20.19 5.46 19.05 5.46ZM27.02 6.79L27.17 6.79C28.49 6.79 30.23 6.19 30.23 4.61C30.23 2.98 28.87 2.49 26.14 2.49L21.32 2.49L21.32 2.72L22.36 2.72L22.36 11.94L21.32 11.94L21.32 12.17L26.08 12.17C28.53 12.17 30.62 11.55 30.62 9.34C30.62 7.57 28.71 6.90 27.02 6.87ZM27.68 9.45C27.68 10.81 27.31 11.94 25.62 11.94L25.20 11.94L25.20 7.03L25.54 7.03C26.61 7.03 27.68 7.39 27.68 9.45ZM27.27 4.69C27.27 5.81 26.68 6.79 25.51 6.79L25.20 6.79L25.20 2.72L25.44 2.72C26.85 2.72 27.27 3.81 27.27 4.69ZM38.98 11.94L38.98 5.46C38.04 5.66 37.20 5.73 36.23 5.73L35.39 5.73L35.39 5.96L36.39 5.96L36.39 8.48C36.39 9.91 36.11 11.63 35.39 11.63C34.76 11.63 34.71 10.61 34.71 8.97L34.71 5.46C33.77 5.66 32.93 5.73 31.96 5.73L31.12 5.73L31.12 5.95L32.12 5.95L32.12 9.56C32.12 11.26 32.61 12.45 34.30 12.45C35.28 12.45 35.90 11.98 36.26 11.07L36.33 11.07L36.33 12.17L39.84 12.17L39.84 11.94ZM45.39 5.46C44.72 5.46 44.18 5.94 44.18 6.65C44.18 7.24 44.63 7.73 45.23 7.73C45.78 7.73 46.23 7.35 46.23 6.75C46.23 6.44 46.05 6.17 45.75 6.03C45.65 5.99 45.63 5.96 45.63 5.89C45.63 5.82 45.68 5.77 45.75 5.77C45.89 5.77 46.13 5.92 46.21 6.01C46.61 6.34 46.77 6.89 46.77 7.50C46.77 8.19 46.66 8.81 46.45 9.28C46.06 10.15 45.63 10.65 45.05 10.65C44.49 10.65 43.50 9.59 43.50 6.65C43.50 6.10 43.53 5.46 43.53 5.46C42.59 5.66 41.58 5.73 40.61 5.73L39.77 5.73L39.77 5.95L40.78 5.95L40.78 6.17C40.78 9.21 41.24 11.13 43.69 11.93C43.08 12.42 42.50 12.98 42.50 13.90C42.50 14.87 43.19 15.46 44.00 15.46C44.67 15.46 45.22 15.01 45.22 14.24C45.22 13.58 44.70 13.15 44.11 13.15C43.53 13.15 43.16 13.62 43.16 14.08C43.16 14.36 43.32 14.69 43.60 14.87C43.67 14.91 43.71 14.94 43.71 15.01C43.71 15.06 43.67 15.13 43.58 15.13C43.54 15.13 43.47 15.11 43.43 15.08C43.11 14.90 42.76 14.59 42.76 13.87C42.76 12.47 44.60 11.73 45.60 10.88C46.58 10.04 47.03 8.86 47.03 7.55C47.03 6.43 46.52 5.46 45.39 5.46Z"></path></g><!----><!----></svg>